# 3ds Max Wavefront OBJ Exporter v0.97b - (c)2007 guruware
# File Created: 08.04.2013 23:45:00

mtllib RockObject2.mtl

#
# object Box001
#

#
# object Box002
#

#
# object Cylinder001
#

v  22.9762 -0.3019 -0.0130
v  22.2592 5.7044 -11.8423
v  23.5371 5.5619 -0.0130
v  21.4390 0.0141 -11.8423
v  17.9460 6.4532 -22.4484
v  17.4756 0.5716 -22.1051
v  11.4202 6.0060 -30.1063
v  11.2169 0.0397 -29.7611
v  3.5457 6.0122 -34.0740
v  3.5457 0.0000 -34.0740
v  -4.7458 6.0122 -31.8381
v  -4.7458 0.0000 -31.8381
v  -12.5373 6.0122 -29.9657
v  -12.5373 0.0000 -29.9657
v  -19.9301 6.0122 -22.9631
v  -19.9301 0.0000 -22.9631
v  -27.2293 6.0122 -10.6806
v  -27.2293 0.0000 -10.6806
v  -28.5293 6.0122 -0.0000
v  -28.5293 0.0000 -0.0000
v  -27.2293 6.0122 10.6805
v  -27.2293 0.0000 10.6805
v  -18.8890 6.0122 22.2187
v  -18.8890 0.0000 22.2187
v  -12.5373 6.0122 29.9397
v  -12.5373 0.0000 29.9397
v  -4.7458 6.0122 34.0480
v  -4.7458 0.0000 34.0480
v  3.5457 6.0122 34.0480
v  3.5457 0.0000 34.0480
v  11.1326 5.5752 29.6851
v  10.9563 -0.3281 29.0360
v  18.0697 6.3403 23.1224
v  17.8934 0.4370 22.4734
v  21.8346 6.0122 11.8163
v  21.8346 0.0000 11.8163
v  20.0527 12.0612 -10.6805
v  21.3404 11.6386 -0.0000
v  16.3450 13.2779 -20.0729
v  10.7781 12.0245 -27.0441
v  3.7432 12.0245 -30.7534
v  -3.7432 12.0245 -30.0660
v  -10.7781 12.0245 -28.3755
v  -17.4530 12.0245 -20.7215
v  -24.8358 12.0245 -10.6806
v  -26.1358 12.0245 -0.0000
v  -24.8358 12.0245 10.6805
v  -16.5130 12.0245 20.0729
v  -10.7781 12.0245 27.0441
v  -3.7432 12.0245 30.7534
v  3.7432 12.0245 30.7534
v  10.7781 12.0245 27.0441
v  16.5130 12.0245 20.0729
v  20.0527 12.0612 10.6806
v  20.8697 18.8735 -11.5286
v  22.2348 18.4255 -0.2056
v  16.9389 20.1634 -21.4860
v  10.6217 19.0378 -28.8766
v  3.1636 19.0378 -32.8091
v  -3.7432 18.0367 -30.0660
v  -10.7781 18.0367 -28.3755
v  -17.4530 18.0367 -20.7215
v  -24.8358 18.0367 -10.6806
v  -26.1358 18.0367 -0.0000
v  -24.8358 18.0367 10.6805
v  -16.5130 18.0367 20.0729
v  -10.7781 18.0367 27.0441
v  -4.7731 19.0378 32.3979
v  3.1636 19.0378 32.3979
v  10.6217 19.0378 28.4655
v  16.7016 19.0378 21.0749
v  20.8697 18.8735 11.1175
v  20.6700 27.1456 -11.5286
v  22.0482 27.1456 -0.2056
v  16.7016 23.0478 -21.4860
v  10.6217 25.0103 -28.8766
v  3.1636 25.0103 -32.8091
v  -3.7432 24.0489 -28.7346
v  -10.7781 24.0489 -27.0441
v  -16.5130 24.0489 -20.0729
v  -21.8509 24.0489 -10.6806
v  -23.1509 24.0489 -0.0000
v  -21.8509 24.0489 10.6805
v  -16.5130 24.0489 20.0729
v  -10.7781 24.0489 27.0441
v  -4.7731 23.0478 32.3979
v  3.1636 23.0478 32.3979
v  10.6217 23.0478 28.4655
v  16.7016 25.9664 21.0749
v  20.6700 25.9664 11.1175
v  18.9555 39.1641 -9.1228
v  20.0655 39.3320 0.0162
v  15.7591 34.5827 -17.1595
v  10.8619 35.8042 -23.1245
v  4.8547 34.8953 -26.2984
v  -1.5381 30.5618 -24.5710
v  -7.5453 29.6529 -23.1245
v  -12.4425 28.9119 -17.1595
v  -16.6288 28.2785 -9.1228
v  -17.7389 28.1105 0.0162
v  -16.6288 28.3161 9.1552
v  -12.4425 28.9495 17.1918
v  -7.5453 29.6529 23.1569
v  -1.5381 30.5618 26.3308
v  4.8547 31.5290 26.3308
v  10.8619 33.8417 23.1569
v  15.7591 37.5013 17.1918
v  18.9554 37.9849 9.1552
v  5.1743 37.9221 0.0162
v  4.9576 37.8893 -1.7682
v  4.9576 37.8893 1.8006
v  4.3335 37.7949 -3.3374
v  3.3773 37.6502 -4.5021
v  3.5303 37.6734 -4.4213
v  0.9126 35.8736 -3.7139
v  -1.3015 35.5385 -3.1808
v  -1.8796 35.4511 -2.4767
v  -2.9508 35.2890 -0.4203
v  -3.0038 35.2810 0.0162
v  -2.9508 35.3266 0.4527
v  -1.8796 35.4887 2.5090
v  -0.2168 35.7027 4.5345
v  0.9562 35.8801 5.1542
v  2.2044 36.0690 5.1542
v  3.3773 37.6502 4.5345
v  4.3335 37.7949 3.3698
# 126 vertices

vn 0.9639 -0.2182 -0.1525
vn 0.8217 -0.2803 -0.4962
vn 0.6213 -0.1901 -0.7602
vn 0.3263 -0.1150 -0.9382
vn -0.1830 0.0000 -0.9831
vn -0.1636 0.0000 -0.9865
vn -0.5473 0.0000 -0.8370
vn -0.7578 0.0000 -0.6524
vn -0.9848 0.0000 -0.1736
vn -0.9848 0.0000 0.1736
vn -0.6906 0.0000 0.7232
vn -0.6428 0.0000 0.7660
vn -0.3420 0.0000 0.9397
vn -0.0000 0.0000 1.0000
vn 0.3689 0.0000 0.9295
vn 0.5433 -0.1855 0.8188
vn 0.8908 -0.1406 0.4322
vn 0.9789 0.0000 0.2041
vn 0.7545 0.6459 -0.1161
vn 0.6766 0.6558 -0.3349
vn 0.4788 0.6195 -0.6221
vn 0.2584 0.6552 -0.7099
vn -0.0469 0.6711 -0.7398
vn -0.1440 0.4749 -0.8682
vn -0.4921 0.6094 -0.6217
vn -0.4578 0.7434 -0.4876
vn -0.7219 0.6801 -0.1273
vn -0.7219 0.6801 0.1273
vn -0.5318 0.5010 0.6827
vn -0.4438 0.7234 0.5289
vn -0.2447 0.6985 0.6724
vn -0.0000 0.6670 0.7451
vn 0.2652 0.6316 0.7286
vn 0.5521 0.5120 0.6580
vn 0.6231 0.7035 0.3419
vn 0.7956 0.5929 0.1246
vn 0.9381 -0.3011 -0.1711
vn 0.8084 -0.3287 -0.4884
vn 0.6021 -0.3616 -0.7119
vn 0.3194 -0.3577 -0.8775
vn -0.2094 -0.4553 -0.8654
vn -0.6206 0.0000 -0.7841
vn -0.6845 0.0000 -0.7291
vn -0.6145 0.0000 0.7889
vn -0.5241 0.0000 0.8516
vn -0.0000 -0.3577 0.9338
vn 0.3282 -0.2812 0.9018
vn 0.6278 -0.2146 0.7482
vn 0.8414 -0.1730 0.5120
vn 0.9429 -0.2856 0.1716
vn 0.9836 0.0498 -0.1734
vn 0.8596 0.0491 -0.5086
vn 0.6477 0.1261 -0.7514
vn 0.3420 0.0000 -0.9397
vn -0.3771 0.0000 -0.9262
vn -0.1541 0.3361 -0.9291
vn -0.6194 0.2670 -0.7382
vn -0.7174 0.3695 -0.5906
vn -0.6440 0.7566 -0.1135
vn -0.6440 0.7566 0.1135
vn -0.5718 0.6718 0.4708
vn 0.3420 0.0000 0.9397
vn 0.6428 0.0000 0.7660
vn 0.8660 0.0000 0.5000
vn 0.9820 0.0654 0.1773
vn 0.9187 0.3586 -0.1657
vn 0.7132 0.4234 -0.5587
vn 0.5868 0.5025 -0.6349
vn 0.2295 0.6322 -0.7401
vn -0.3226 0.7508 -0.5764
vn -0.1523 0.7696 -0.6201
vn -0.3475 0.8710 -0.3471
vn -0.3505 0.9102 -0.2206
vn -0.3152 0.9480 -0.0448
vn -0.3021 0.9524 0.0401
vn -0.2900 0.9412 0.1734
vn -0.3100 0.9009 0.3036
vn -0.2278 0.8497 0.4755
vn -0.0521 0.8148 0.5775
vn 0.1275 0.7276 0.6741
vn 0.4273 0.5525 0.7157
vn 0.7843 0.4084 0.4669
vn 0.9129 0.3597 0.1931
vn -0.0970 -0.9953 0.0020
vn -0.0638 0.9980 -0.0000
vn -0.0400 0.9992 -0.0042
vn -0.0428 0.9990 -0.0121
vn 0.0276 0.9937 -0.1084
vn 0.0344 -0.9962 0.0805
vn -0.2947 0.9504 -0.0997
vn -0.0862 0.9865 -0.1391
vn -0.1535 0.9822 -0.1078
vn -0.1752 0.9809 -0.0849
vn -0.2014 0.9792 -0.0244
vn -0.2013 0.9791 -0.0272
vn -0.1752 0.9809 0.0849
vn -0.1485 0.9824 0.1131
vn -0.1113 0.9849 0.1324
vn -0.0632 0.9880 0.1411
vn -0.4313 0.8812 0.1938
vn 0.0276 0.9937 0.1084
vn -0.0134 0.9995 0.0291
vn -0.0065 0.9999 0.0101
vn 0.9309 -0.3176 -0.1804
vn 0.8508 -0.2071 -0.4829
vn 0.6428 -0.1233 -0.7560
vn 0.3618 0.0000 -0.9323
vn 0.4125 -0.1892 0.8911
vn 0.8815 0.0000 0.4722
vn 0.9659 -0.2187 0.1385
vn 0.7510 0.6506 -0.1127
vn 0.6969 0.6055 -0.3844
vn 0.4779 0.6297 -0.6125
vn 0.2534 0.6371 -0.7280
vn -0.1606 0.4789 -0.8630
vn -0.3787 0.7219 -0.5791
vn -0.6168 0.5811 -0.5310
vn -0.4721 0.7298 0.4944
vn 0.3185 0.5553 0.7682
vn 0.3463 0.7352 0.5828
vn 0.7208 0.6058 0.3369
vn 0.7524 0.6432 0.1419
vn 0.6441 -0.2713 -0.7152
vn -0.0633 0.0000 -0.9980
vn -0.3085 -0.4319 0.8476
vn 0.8411 -0.2868 0.4585
vn 0.9838 0.0562 -0.1705
vn 0.8614 0.1677 -0.4793
vn 0.6283 0.0000 -0.7780
vn -0.2684 0.3277 -0.9059
vn -0.5825 0.3452 -0.7359
vn -0.5334 0.6267 -0.5681
vn 0.8539 0.0569 0.5173
vn 0.9841 0.0498 0.1707
vn 0.9177 0.3627 -0.1618
vn 0.7131 0.4613 -0.5279
vn 0.5924 0.5110 -0.6229
vn 0.2577 0.6575 -0.7080
vn -0.2703 0.7905 -0.5496
vn -0.0974 0.8037 -0.5870
vn -0.2848 0.8965 -0.3395
vn -0.2736 0.9351 -0.2253
vn -0.3018 0.9519 -0.0532
vn -0.3158 0.9472 0.0557
vn -0.3284 0.9050 0.2703
vn -0.3195 0.8677 0.3808
vn -0.2289 0.8527 0.4696
vn -0.0000 0.7598 0.6502
vn 0.2753 0.5932 0.7565
vn 0.5001 0.4895 0.7143
vn 0.7968 0.3917 0.4600
vn 0.9191 0.3484 0.1843
vn 0.0962 -0.9924 0.0764
vn -0.0000 -0.9992 0.0400
vn 0.0000 -1.0000 -0.0000
vn -0.0064 -0.9999 0.0111
vn -0.0047 -1.0000 0.0002
vn 0.0007 -1.0000 0.0038
vn 0.0009 -1.0000 0.0021
vn -0.0000 -1.0000 -0.0038
vn 0.1198 -0.9878 -0.0999
vn 0.0035 -1.0000 -0.0038
vn 0.0120 -0.9999 -0.0007
vn 0.1940 -0.9073 -0.3730
vn -0.2958 0.3186 -0.9005
vn 0.0271 0.9973 -0.0685
vn -0.0708 0.9975 -0.0046
vn -0.0711 0.9973 0.0200
vn -0.0374 0.5845 0.8105
vn -0.2369 0.9292 0.2838
vn -0.1700 0.9854 -0.0045
vn -0.1741 0.9847 -0.0000
vn -0.0638 0.9980 0.0000
vn -0.1115 0.9565 -0.2696
vn 0.1044 0.9945 0.0005
vn -0.0344 0.9962 -0.0805
vn -0.2910 0.9516 -0.0988
vn -0.2023 0.9791 0.0221
vn -0.1514 0.9824 0.1091
vn -0.0945 0.9795 0.1777
vn -0.1475 0.9708 0.1892
vn -0.0398 0.9958 0.0828
# 182 vertex normals

vt 0.5000 0.0012 0.9887
vt 0.6735 0.1525 0.9750
vt 0.5000 0.1489 0.9995
vt 0.0408 0.6735 0.0091
vt 0.1078 0.8290 0.1713
vt 0.0250 0.6735 0.1525
vt 0.1168 0.0232 0.8240
vt 0.2330 0.1601 0.9413
vt 0.1078 0.1713 0.8290
vt 0.2369 0.0098 0.9363
vt 0.3841 0.1602 0.9995
vt 0.3841 0.0088 0.9995
vt 0.5432 0.1602 0.9667
vt 0.5432 0.0088 0.9667
vt 0.6927 0.1602 0.9393
vt 0.6927 0.0088 0.9393
vt 0.8345 0.1602 0.8366
vt 0.1634 0.0088 0.1655
vt 0.3436 0.1602 0.0254
vt 0.1634 0.1602 0.1655
vt 0.3436 0.0088 0.0254
vt 0.5002 0.1602 0.0005
vt 0.5002 0.0088 0.0005
vt 0.6568 0.1602 0.0254
vt 0.0254 0.0088 0.3432
vt 0.1855 0.1602 0.1740
vt 0.0254 0.1602 0.3432
vt 0.1855 0.0088 0.1740
vt 0.3073 0.1602 0.0607
vt 0.3073 0.0088 0.0607
vt 0.4568 0.1602 0.0005
vt 0.4568 0.0088 0.0005
vt 0.6159 0.1602 0.0005
vt 0.6159 0.0088 0.0005
vt 0.7615 0.1492 0.0645
vt 0.7581 0.0005 0.0740
vt 0.8946 0.1685 0.1607
vt 0.1702 0.0198 0.8912
vt 0.3265 0.1602 0.9668
vt 0.1607 0.1685 0.8946
vt 0.3265 0.0088 0.9668
vt 0.9995 0.5000 0.1489
vt 0.9326 0.6564 0.3126
vt 0.9574 0.4998 0.3019
vt 0.9750 0.6735 0.1525
vt 0.8615 0.7942 0.3432
vt 0.8922 0.8290 0.1713
vt 0.7547 0.8964 0.3116
vt 0.7670 0.9413 0.1601
vt 0.6197 0.9508 0.3116
vt 0.6159 0.9995 0.1602
vt 0.4761 0.9407 0.3116
vt 0.4568 0.9667 0.1602
vt 0.3411 0.9159 0.3116
vt 0.3073 0.9393 0.1602
vt 0.2130 0.8037 0.3116
vt 0.1655 0.8366 0.1602
vt 0.0714 0.6564 0.3116
vt 0.0254 0.6564 0.1602
vt 0.0464 0.4998 0.3116
vt 0.0005 0.4998 0.1602
vt 0.0714 0.3432 0.3116
vt 0.0254 0.3432 0.1602
vt 0.2311 0.2054 0.3116
vt 0.1855 0.1740 0.1602
vt 0.3411 0.1032 0.3116
vt 0.3073 0.0607 0.1602
vt 0.4761 0.0488 0.3116
vt 0.4568 0.0005 0.1602
vt 0.6197 0.0488 0.3116
vt 0.6159 0.0005 0.1602
vt 0.7547 0.1032 0.3116
vt 0.7615 0.0645 0.1492
vt 0.8647 0.2054 0.3116
vt 0.8946 0.1607 0.1685
vt 0.9326 0.3432 0.3126
vt 0.9668 0.3265 0.1602
vt 0.4998 0.3019 0.9574
vt 0.6689 0.4842 0.9483
vt 0.5028 0.4729 0.9745
vt 0.0674 0.6564 0.3126
vt 0.1271 0.8149 0.5167
vt 0.0517 0.6689 0.4842
vt 0.1385 0.7942 0.3432
vt 0.2483 0.9233 0.4883
vt 0.2453 0.8964 0.3116
vt 0.3914 0.9810 0.4883
vt 0.3803 0.9508 0.3116
vt 0.5239 0.9407 0.4631
vt 0.5239 0.3116 0.9407
vt 0.6589 0.4631 0.9159
vt 0.5239 0.4631 0.9407
vt 0.6589 0.3116 0.9159
vt 0.7870 0.4631 0.8037
vt 0.7870 0.3116 0.8037
vt 0.9286 0.4631 0.6564
vt 0.3436 0.3116 0.0714
vt 0.5002 0.4631 0.0464
vt 0.3436 0.4631 0.0714
vt 0.5002 0.3116 0.0464
vt 0.6568 0.4631 0.0714
vt 0.0714 0.3116 0.3432
vt 0.2311 0.4631 0.2054
vt 0.0714 0.4631 0.3432
vt 0.2311 0.3116 0.2054
vt 0.3411 0.4631 0.1032
vt 0.3411 0.3116 0.1032
vt 0.4563 0.4883 0.0247
vt 0.5239 0.0488 0.3116
vt 0.3914 0.0247 0.4883
vt 0.5437 0.0247 0.4883
vt 0.6197 0.3116 0.0488
vt 0.7517 0.4883 0.0824
vt 0.6086 0.4883 0.0247
vt 0.7547 0.3116 0.1032
vt 0.8683 0.4883 0.1907
vt 0.2054 0.3116 0.8647
vt 0.3368 0.4842 0.9483
vt 0.1907 0.4883 0.8683
vt 0.3432 0.3126 0.9326
vt 0.6689 0.6925 0.9445
vt 0.5028 0.6925 0.9709
vt 0.8149 0.5893 0.8683
vt 0.1271 0.5167 0.8149
vt 0.2483 0.6387 0.9233
vt 0.1317 0.5893 0.8149
vt 0.2483 0.4883 0.9233
vt 0.3914 0.6387 0.9810
vt 0.3914 0.4883 0.9810
vt 0.5239 0.6145 0.9212
vt 0.4761 0.9407 0.4631
vt 0.3411 0.8964 0.6145
vt 0.4761 0.9212 0.6145
vt 0.3411 0.9159 0.4631
vt 0.2311 0.7942 0.6145
vt 0.2130 0.8037 0.4631
vt 0.1286 0.6564 0.6145
vt 0.0714 0.6564 0.4631
vt 0.1037 0.4998 0.6145
vt 0.0464 0.4998 0.4631
vt 0.1286 0.3432 0.6145
vt 0.0714 0.3432 0.4631
vt 0.2311 0.2054 0.6145
vt 0.3411 0.6145 0.1032
vt 0.2311 0.6145 0.2054
vt 0.4563 0.5893 0.0247
vt 0.6086 0.5893 0.0247
vt 0.7517 0.5893 0.0824
vt 0.8683 0.6628 0.1907
vt 0.3368 0.6628 0.9445
vt 0.1907 0.6628 0.8683
vt 0.9709 0.5028 0.6925
vt 0.9116 0.6336 0.9953
vt 0.9329 0.4996 0.9995
vt 0.9445 0.6689 0.6925
vt 0.8503 0.7515 0.8799
vt 0.8683 0.8149 0.5893
vt 0.7563 0.8389 0.9106
vt 0.7517 0.9233 0.6387
vt 0.6410 0.8855 0.8877
vt 0.6086 0.9810 0.6387
vt 0.5184 0.8601 0.7786
vt 0.4031 0.8389 0.7557
vt 0.3092 0.7515 0.7370
vt 0.2288 0.6336 0.7211
vt 0.2075 0.4996 0.7168
vt 0.2288 0.3655 0.7220
vt 0.3092 0.2477 0.7380
vt 0.4031 0.1602 0.7557
vt 0.3411 0.1032 0.6145
vt 0.5184 0.1137 0.7786
vt 0.4563 0.0247 0.5893
vt 0.6410 0.1137 0.8030
vt 0.6086 0.0247 0.5893
vt 0.7563 0.1602 0.8612
vt 0.7517 0.0824 0.5893
vt 0.8503 0.2477 0.9534
vt 0.8683 0.1907 0.6628
vt 0.9116 0.3655 0.9656
vt 0.9445 0.3368 0.6628
vt 0.0332 0.3265 0.0088
vt 0.0113 0.5000 0.0012
vt 0.6472 0.4996 0.9640
vt 0.6430 0.5257 0.9632
vt 0.6430 0.4734 0.9632
vt 0.6310 0.5488 0.9608
vt 0.6127 0.5658 0.9571
vt 0.3590 0.8855 0.8877
vt 0.3844 0.5646 0.9577
vt 0.3873 0.5658 0.9571
vt 0.5654 0.5543 0.9124
vt 0.6156 0.5646 0.9577
vt 0.5229 0.5465 0.9039
vt 0.5118 0.5361 0.9017
vt 0.4913 0.5060 0.8977
vt 0.4903 0.4996 0.8975
vt 0.4913 0.4932 0.8986
vt 0.5118 0.4630 0.9027
vt 0.5437 0.4333 0.9081
vt 0.5662 0.4242 0.9126
vt 0.5902 0.4242 0.9173
vt 0.6127 0.4333 0.9571
vt 0.6310 0.4504 0.9608
vt 0.6735 0.0091 0.9592
vt 0.8240 0.0232 0.8832
vt 0.8290 0.1713 0.8922
vt 0.8345 0.0088 0.8366
vt 0.6568 0.0088 0.0254
vt 0.8912 0.0198 0.1702
vt 0.6564 0.3126 0.9326
vt 0.3803 0.3116 0.9508
vt 0.9286 0.3116 0.6564
vt 0.6568 0.3116 0.0714
vt 0.6589 0.1032 0.3116
vt 0.3803 0.0488 0.3116
vt 0.8647 0.3116 0.2054
vt 0.1353 0.2054 0.3116
vt 0.0674 0.3432 0.3126
vt 0.0517 0.3368 0.4842
vt 0.8149 0.5167 0.8729
vt 0.6086 0.9810 0.4883
vt 0.1088 0.1702 0.0198
vt 0.2419 0.0740 0.0005
vt 0.3841 0.0005 0.0088
vt 0.5432 0.0005 0.0088
vt 0.6927 0.0607 0.0088
vt 0.8145 0.1740 0.0088
vt 0.9746 0.3432 0.0088
vt 0.9995 0.4998 0.0088
vt 0.9746 0.6564 0.0088
vt 0.8345 0.8366 0.0088
vt 0.6927 0.9393 0.0088
vt 0.5432 0.9667 0.0088
vt 0.3841 0.9995 0.0088
vt 0.2369 0.9363 0.0098
vt 0.1168 0.8240 0.0232
vt 0.4346 0.5543 0.9124
vt 0.3873 0.9571 0.5658
vt 0.4346 0.9124 0.5543
vt 0.4882 0.9017 0.5361
# 240 texture coords

g Cylinder001
usemtl 01___Default
s off
f 1/1/1 2/2/1 3/3/1 
f 4/4/2 5/5/2 2/6/2 
f 6/7/3 7/8/3 5/9/3 
f 8/10/4 9/11/4 7/8/4 
f 10/12/5 11/13/5 9/11/5 
f 12/14/6 13/15/6 11/13/6 
f 14/16/7 15/17/7 13/15/7 
f 16/18/8 17/19/8 15/20/8 
f 18/21/9 19/22/9 17/19/9 
f 20/23/10 21/24/10 19/22/10 
f 22/25/11 23/26/11 21/27/11 
f 24/28/12 25/29/12 23/26/12 
f 26/30/13 27/31/13 25/29/13 
f 28/32/14 29/33/14 27/31/14 
f 30/34/15 31/35/15 29/33/15 
f 32/36/16 33/37/16 31/35/16 
f 34/38/17 35/39/17 33/40/17 
f 36/41/18 3/3/18 35/39/18 
f 3/42/19 37/43/19 38/44/19 
f 2/45/20 39/46/20 37/43/20 
f 5/47/21 40/48/21 39/46/21 
f 7/49/22 41/50/22 40/48/22 
f 9/51/23 42/52/23 41/50/23 
f 11/53/24 43/54/24 42/52/24 
f 13/55/25 44/56/25 43/54/25 
f 15/57/26 45/58/26 44/56/26 
f 17/59/27 46/60/27 45/58/27 
f 19/61/28 47/62/28 46/60/28 
f 21/63/29 48/64/29 47/62/29 
f 23/65/30 49/66/30 48/64/30 
f 25/67/31 50/68/31 49/66/31 
f 27/69/32 51/70/32 50/68/32 
f 29/71/33 52/72/33 51/70/33 
f 31/73/34 53/74/34 52/72/34 
f 33/75/35 54/76/35 53/74/35 
f 35/77/36 38/44/36 54/76/36 
f 38/78/37 55/79/37 56/80/37 
f 37/81/38 57/82/38 55/83/38 
f 39/84/39 58/85/39 57/82/39 
f 40/86/40 59/87/40 58/85/40 
f 41/88/41 60/89/41 59/87/41 
f 42/90/6 61/91/6 60/92/6 
f 43/93/42 62/94/42 61/91/42 
f 44/95/43 63/96/43 62/94/43 
f 45/97/9 64/98/9 63/99/9 
f 46/100/10 65/101/10 64/98/10 
f 47/102/44 66/103/44 65/104/44 
f 48/105/12 67/106/12 66/103/12 
f 49/107/45 68/108/45 67/106/45 
f 50/109/46 69/110/46 68/111/46 
f 51/112/47 70/113/47 69/114/47 
f 52/115/48 71/116/48 70/113/48 
f 53/117/49 72/118/49 71/119/49 
f 54/120/50 56/80/50 72/118/50 
f 56/80/51 73/121/51 74/122/51 
f 55/79/52 75/123/52 73/121/52 
f 57/124/53 76/125/53 75/126/53 
f 58/127/54 77/128/54 76/125/54 
f 59/129/55 78/130/55 77/128/55 
f 60/131/56 79/132/56 78/133/56 
f 61/134/57 80/135/57 79/132/57 
f 62/136/58 81/137/58 80/135/58 
f 63/138/59 82/139/59 81/137/59 
f 64/140/60 83/141/60 82/139/60 
f 65/142/61 84/143/61 83/141/61 
f 66/103/12 85/144/12 84/145/12 
f 67/106/45 86/146/45 85/144/45 
f 68/108/14 87/147/14 86/146/14 
f 69/114/62 88/148/62 87/147/62 
f 70/113/63 89/149/63 88/148/63 
f 71/119/64 90/150/64 89/151/64 
f 72/118/65 74/122/65 90/150/65 
f 74/152/66 91/153/66 92/154/66 
f 73/155/67 93/156/67 91/153/67 
f 75/157/68 94/158/68 93/156/68 
f 76/159/69 95/160/69 94/158/69 
f 77/161/70 96/162/70 95/160/70 
f 78/133/71 97/163/71 96/162/71 
f 79/132/72 98/164/72 97/163/72 
f 80/135/73 99/165/73 98/164/73 
f 81/137/74 100/166/74 99/165/74 
f 82/139/75 101/167/75 100/166/75 
f 83/141/76 102/168/76 101/167/76 
f 84/143/77 103/169/77 102/168/77 
f 85/170/78 104/171/78 103/169/78 
f 86/172/79 105/173/79 104/171/79 
f 87/174/80 106/175/80 105/173/80 
f 88/176/81 107/177/81 106/175/81 
f 89/178/82 108/179/82 107/177/82 
f 90/180/83 92/154/83 108/179/83 
f 36/181/84 4/4/84 1/182/84 
f 109/183/85 110/184/85 111/185/85 
f 92/154/86 110/184/86 109/183/86 
f 91/153/87 112/186/87 110/184/87 
f 93/156/88 113/187/88 112/186/88 
f 95/188/89 114/189/89 113/190/89 
f 95/160/90 115/191/90 114/192/90 
f 96/162/91 116/193/91 115/191/91 
f 97/163/92 117/194/92 116/193/92 
f 98/164/93 118/195/93 117/194/93 
f 99/165/94 119/196/94 118/195/94 
f 100/166/95 120/197/95 119/196/95 
f 101/167/96 121/198/96 120/197/96 
f 102/168/97 122/199/97 121/198/97 
f 103/169/98 123/200/98 122/199/98 
f 104/171/99 124/201/99 123/200/99 
f 105/173/100 125/202/100 124/201/100 
f 106/175/101 126/203/101 125/202/101 
f 107/177/102 111/185/102 126/203/102 
f 108/179/103 109/183/103 111/185/103 
f 1/182/104 4/4/104 2/6/104 
f 4/204/105 6/205/105 5/206/105 
f 6/7/106 8/10/106 7/8/106 
f 8/10/107 10/12/107 9/11/107 
f 10/12/5 12/14/5 11/13/5 
f 12/14/6 14/16/6 13/15/6 
f 14/16/7 16/207/7 15/17/7 
f 16/18/8 18/21/8 17/19/8 
f 18/21/9 20/23/9 19/22/9 
f 20/23/10 22/208/10 21/24/10 
f 22/25/11 24/28/11 23/26/11 
f 24/28/12 26/30/12 25/29/12 
f 26/30/13 28/32/13 27/31/13 
f 28/32/14 30/34/14 29/33/14 
f 30/34/108 32/36/108 31/35/108 
f 32/36/16 34/209/16 33/37/16 
f 34/38/109 36/41/109 35/39/109 
f 36/41/110 1/1/110 3/3/110 
f 3/42/111 2/45/111 37/43/111 
f 2/45/112 5/47/112 39/46/112 
f 5/47/113 7/49/113 40/48/113 
f 7/49/114 9/51/114 41/50/114 
f 9/51/115 11/53/115 42/52/115 
f 11/53/24 13/55/24 43/54/24 
f 13/55/116 15/57/116 44/56/116 
f 15/57/117 17/59/117 45/58/117 
f 17/59/27 19/61/27 46/60/27 
f 19/61/28 21/63/28 47/62/28 
f 21/63/118 23/65/118 48/64/118 
f 23/65/30 25/67/30 49/66/30 
f 25/67/31 27/69/31 50/68/31 
f 27/69/32 29/71/32 51/70/32 
f 29/71/119 31/73/119 52/72/119 
f 31/73/120 33/75/120 53/74/120 
f 33/75/121 35/77/121 54/76/121 
f 35/77/122 3/42/122 38/44/122 
f 38/78/37 37/210/37 55/79/37 
f 37/81/38 39/84/38 57/82/38 
f 39/84/123 40/86/123 58/85/123 
f 40/86/40 41/88/40 59/87/40 
f 41/211/124 42/90/124 60/92/124 
f 42/90/6 43/93/6 61/91/6 
f 43/93/42 44/95/42 62/94/42 
f 44/95/43 45/212/43 63/96/43 
f 45/97/9 46/100/9 64/98/9 
f 46/100/10 47/213/10 65/101/10 
f 47/102/44 48/105/44 66/103/44 
f 48/105/12 49/107/12 67/106/12 
f 49/214/125 50/109/125 68/111/125 
f 50/109/46 51/215/46 69/110/46 
f 51/112/47 52/115/47 70/113/47 
f 52/115/48 53/216/48 71/116/48 
f 53/217/126 54/218/126 72/219/126 
f 54/120/50 38/78/50 56/80/50 
f 56/80/127 55/79/127 73/121/127 
f 55/79/128 57/220/128 75/123/128 
f 57/124/129 58/127/129 76/125/129 
f 58/127/54 59/129/54 77/128/54 
f 59/221/130 60/131/130 78/133/130 
f 60/131/56 61/134/56 79/132/56 
f 61/134/131 62/136/131 80/135/131 
f 62/136/132 63/138/132 81/137/132 
f 63/138/59 64/140/59 82/139/59 
f 64/140/60 65/142/60 83/141/60 
f 65/104/44 66/103/44 84/145/44 
f 66/103/12 67/106/12 85/144/12 
f 67/106/45 68/108/45 86/146/45 
f 68/108/14 69/114/14 87/147/14 
f 69/114/62 70/113/62 88/148/62 
f 70/113/63 71/116/63 89/149/63 
f 71/119/133 72/118/133 90/150/133 
f 72/118/134 56/80/134 74/122/134 
f 74/152/135 73/155/135 91/153/135 
f 73/155/136 75/157/136 93/156/136 
f 75/157/137 76/159/137 94/158/137 
f 76/159/138 77/161/138 95/160/138 
f 77/161/139 78/133/139 96/162/139 
f 78/133/140 79/132/140 97/163/140 
f 79/132/141 80/135/141 98/164/141 
f 80/135/142 81/137/142 99/165/142 
f 81/137/143 82/139/143 100/166/143 
f 82/139/144 83/141/144 101/167/144 
f 83/141/145 84/143/145 102/168/145 
f 84/143/146 85/170/146 103/169/146 
f 85/170/147 86/172/147 104/171/147 
f 86/172/148 87/174/148 105/173/148 
f 87/174/149 88/176/149 106/175/149 
f 88/176/150 89/178/150 107/177/150 
f 89/178/151 90/180/151 108/179/151 
f 90/180/152 74/152/152 92/154/152 
f 36/181/153 34/222/153 32/223/153 
f 32/223/154 30/224/154 28/225/154 
f 28/225/155 26/226/155 24/227/155 
f 32/223/156 28/225/156 24/227/156 
f 24/227/155 22/228/155 20/229/155 
f 20/229/155 18/230/155 16/231/155 
f 24/227/155 20/229/155 16/231/155 
f 32/223/157 24/227/157 16/231/157 
f 16/231/155 14/232/155 12/233/155 
f 12/233/158 10/234/158 8/235/158 
f 16/231/159 12/233/159 8/235/159 
f 32/223/160 16/231/160 8/235/160 
f 8/235/161 6/236/161 4/4/161 
f 32/223/162 8/235/162 4/4/162 
f 36/181/163 32/223/163 4/4/163 
f 110/184/85 112/186/85 113/187/85 
f 113/190/164 114/189/164 115/237/164 
f 115/191/85 116/193/85 117/194/85 
f 113/238/165 115/239/165 117/240/165 
f 117/194/85 118/195/85 119/196/85 
f 119/196/166 120/197/166 121/198/166 
f 117/194/167 119/196/167 121/198/167 
f 121/198/168 122/199/168 123/200/168 
f 123/200/169 124/201/169 125/202/169 
f 121/198/170 123/200/170 125/202/170 
f 117/194/171 121/198/171 125/202/171 
f 113/187/172 117/194/172 125/202/172 
f 125/202/173 126/203/173 111/185/173 
f 113/187/85 125/202/85 111/185/85 
f 110/184/85 113/187/85 111/185/85 
f 92/154/86 91/153/86 110/184/86 
f 91/153/174 93/156/174 112/186/174 
f 93/156/175 94/158/175 113/187/175 
f 113/187/176 94/158/176 95/160/176 
f 95/160/177 96/162/177 115/191/177 
f 96/162/91 97/163/91 116/193/91 
f 97/163/92 98/164/92 117/194/92 
f 98/164/93 99/165/93 118/195/93 
f 99/165/94 100/166/94 119/196/94 
f 100/166/178 101/167/178 120/197/178 
f 101/167/96 102/168/96 121/198/96 
f 102/168/179 103/169/179 122/199/179 
f 103/169/98 104/171/98 123/200/98 
f 104/171/99 105/173/99 124/201/99 
f 105/173/180 106/175/180 125/202/180 
f 106/175/181 107/177/181 126/203/181 
f 107/177/102 108/179/102 111/185/102 
f 108/179/182 92/154/182 109/183/182 
# 248 faces

